PathFileType	4	(X/Y/Z)	C:/Users/beibeiliu/ov580/test_trc/User2\sequence.7_training_dense_left.trc
DataRate	CameraRate	NumFrames	NumMarkers	Units	OrigDataRate	OrigDataStartFrame	OrigNumFrames
120	120	19	19	mm	120	27	79
Frame#	Time	ThumbCMC			ThumbMCP			ThumbIP			ThumbTip			IndexMCP			IndexPIP			IndexTip			MiddleMCP			MiddlePIP			MiddleTip			RingMCP			RingPIP			RingTip			PinkyMCP			PinkyPIP			PinkyTip			BackHand1			BackHand2			BackHand3	
		X0	Y0	Z0	X1	Y1	Z1	X2	Y2	Z2	X3	Y3	Z3	X4	Y4	Z4	X5	Y5	Z5	X6	Y6	Z6	X7	Y7	Z7	X8	Y8	Z8	X9	Y9	Z9	X10	Y10	Z10	X11	Y11	Z11	X12	Y12	Z12	X13	Y13	Z13	X14	Y14	Z14	X15	Y15	Z15	X16	Y16	Z16	X17	Y17	Z17	X18	Y18	Z18	
26	0.216667	-162.944	-18.4446	-18.5329	-143.979	-13.8727	-41.326	-128.024	-8.93319	-68.3312	-112.267	-5.61991	-86.2763	-160.303	-54.1197	-92.4058	-139.991	-79.0031	-84.1622	-142.713	-66.2027	-51.2944	-173.398	-80.6802	-90.4644	-145.013	-93.3401	-76.4493	-149.7	-75.9426	-41.2228	-175.907	-96.2135	-79.6104	-152.466	-102.857	-58.8742	-165.635	-77.0334	-34.7016	-188.578	-108.894	-61.8636	-160.801	-105.673	-42.7672	-171.942	-85.0374	-22.48	-219.894	-63.7814	-42.4218	-227.462	-50.079	-6.35546	-200.406	-27.6504	-30.4187	
27	0.225	-174.58	-14.8116	-19.4826	-155.216	-1.90859	-41.015	-139.047	5.47026	-73.6859	-123.632	14.0817	-89.3072	-153.027	-56.9451	-86.416	-121.022	-64.6342	-74.2721	-135.581	-54.5243	-43.5769	-151.647	-79.0866	-83.9247	-124.013	-85.4942	-62.6446	-140.291	-59.7242	-32.6536	-154.46	-99.3253	-68.2913	-130.356	-93.0917	-45.9323	-150.475	-73.936	-26.7254	-161.19	-112.36	-51.2646	-137.277	-99.5404	-34.6504	-157.975	-80.1712	-17.2506	-206.361	-72.7975	-38.23	-220.623	-63.0946	-6.3532	-203.381	-37.8195	-34.583	
28	0.233333	-184.067	-9.73978	-26.0339	-168.838	-0.0215167	-44.1913	-152.985	9.74922	-74.8114	-139.986	19.047	-91.7168	-141.692	-52.2298	-85.3118	-113.723	-51.9989	-71.6336	-134.487	-38.9435	-40.0108	-140.347	-71.6014	-78.3038	-109.072	-65.4306	-57.0072	-131.377	-52.6101	-29.8879	-131.728	-89.168	-61.6338	-113.17	-74.4084	-41.7888	-140.376	-61.1563	-25.176	-138.774	-101.205	-44.8525	-119.24	-82.8318	-24.32	-147.142	-70.4927	-12.0655	-193.272	-84.3794	-37.5559	-214.045	-69.2967	-6.38216	-204.579	-44.1952	-34.7935	
29	0.241667	-194.731	-11.7117	-27.2255	-181.978	-1.39051	-52.1423	-172.087	14.7105	-81.9395	-159.533	24.5114	-99.8899	-139.938	-47.0938	-84.5922	-110.588	-35.2783	-73.4177	-133.017	-23.1475	-44.8468	-128.243	-67.0998	-76.6375	-103.173	-50.1024	-56.9326	-133.685	-37.6361	-31.2104	-120.63	-77.0118	-58.8624	-105.151	-58.9792	-40.4874	-135.064	-53.1622	-22.6119	-124.376	-87.5986	-40.6356	-109.371	-64.0484	-22.9191	-140.519	-59.9996	-13.6038	-183.781	-81.0334	-33.9286	-204.116	-74.4937	-9.10314	-202.988	-49.3327	-37.4354	
30	0.25	-199.58	-21.47	-34.3374	-195.499	-5.86401	-61.5481	-184.171	5.22259	-86.942	-175.405	16.0466	-110.431	-136.874	-40.2925	-91.3468	-112.195	-28.6962	-79.0464	-136.758	-19.0582	-48.3299	-125.766	-60.6423	-76.6242	-101.372	-38.1671	-59.2387	-131.175	-32.276	-34.4728	-112.099	-67.977	-60.0071	-101.365	-46.071	-39.8034	-135.434	-42.5054	-29.2867	-112.944	-77.6996	-38.9952	-104.022	-52.3096	-24.4336	-139.085	-52.3764	-13.6108	-172.196	-88.0722	-34.8614	-197.6	-81.6779	-8.79421	-199.52	-58.7067	-40.5813	
31	0.258333	-207.464	-27.3063	-37.4511	-205.742	-13.6693	-66.4315	-198.048	-5.76057	-93.9434	-195.762	6.26246	-117.996	-139.314	-44.2387	-94.1199	-118.592	-22.7301	-88.5259	-140.868	-12.6467	-60.0349	-123.294	-54.9702	-83.6542	-106.365	-28.907	-68.2526	-137.39	-23.0644	-43.6755	-111.9	-64.3139	-61.017	-100.907	-38.7112	-51.8611	-134.208	-36.5864	-34.2031	-110.608	-72.7482	-39.1431	-102.837	-41.0294	-28.7978	-132.133	-42.7236	-18.6318	-167.721	-87.2206	-34.6158	-193.387	-82.5946	-9.26414	-199.047	-60.8693	-44.688	
32	0.266667	-212.196	-33.299	-41.7309	-212.632	-23.7203	-68.054	-212.041	-15.081	-100.808	-207.143	-8.41665	-123.472	-152.084	-48.9323	-99.4871	-126.671	-26.5365	-97.3497	-146.818	-15.4871	-69.0064	-130.175	-59.3367	-87.1848	-110.35	-29.6709	-80.9405	-140.268	-22.0089	-54.5168	-116.727	-62.3018	-70.6533	-103.612	-35.7089	-62.5677	-134.301	-32.6434	-42.2764	-109.722	-68.4462	-45.3543	-106.386	-36.388	-43.7454	-135.561	-39.41	-27.2572	-164.91	-88.0547	-35.4652	-190.607	-84.0031	-9.10024	-197.27	-68.7144	-40.8442	
33	0.275	-221.449	-36.7122	-42.9298	-222.061	-29.7273	-70.8719	-223.059	-24.3939	-105.85	-222.012	-17.2598	-124.774	-159.153	-56.2393	-102.066	-136.461	-33.8482	-106.239	-156.085	-19.4569	-78.5164	-138.839	-62.0562	-97.003	-120.234	-33.7521	-93.6628	-144.717	-23.0717	-64.8167	-123.146	-63.0063	-79.9796	-112.031	-37.2103	-74.9339	-140.659	-33.8929	-50.4707	-112.998	-67.8671	-57.1425	-111.804	-36.9503	-55.8025	-135.055	-34.8352	-33.7684	-169.966	-87.2441	-39.1623	-188.994	-86.3818	-12.7412	-202.262	-73.4879	-43.2411	
34	0.283333	-225.232	-38.6618	-41.1039	-230.647	-30.0196	-68.9023	-233.63	-26.4101	-100.507	-233.922	-21.9716	-125.377	-174.015	-60.9808	-107.163	-149.727	-37.707	-112.633	-162.81	-23.5657	-86.3506	-150.672	-68.0958	-104.763	-131.604	-38.3398	-102.29	-156.655	-28.9663	-71.8186	-132.762	-70.4776	-86.4198	-123.561	-39.4363	-87.5462	-147.262	-36.4005	-58.7907	-125	-73.379	-62.1092	-118.121	-39.9921	-67.5126	-141.772	-37.0297	-45.1471	-175.75	-88.5229	-40.8089	-193.042	-86.4365	-9.04641	-207.16	-75.1397	-42.1731	
35	0.291667	-230.339	-34.2486	-38.2908	-234.212	-29.4648	-68.8104	-239.798	-24.2233	-97.4218	-243.204	-17.7968	-122.543	-187.821	-64.4748	-111.565	-164.627	-40.7067	-121.189	-172.929	-26.4884	-93.0244	-161.818	-75.0605	-107.939	-145.011	-44.987	-111.153	-163.873	-31.8468	-79.2659	-144.812	-76.9711	-93.2011	-132.706	-46.9242	-95.2574	-152.996	-40.437	-67.9695	-133.636	-79.6437	-75.138	-125.999	-47.2847	-77.3504	-142.205	-41.866	-52.1053	-181.944	-92.683	-43.6303	-196.661	-89.0246	-10.8968	-214.851	-72.337	-39.6394	
36	0.3	-232.524	-28.902	-35.7933	-236.514	-22.2635	-64.5736	-245.254	-13.6696	-92.493	-255.309	-2.6666	-116.042	-201.568	-66.3387	-110.951	-178.597	-52.4021	-125.615	-180.13	-32.3846	-94.5769	-183.974	-78.9195	-110.869	-160.631	-54.6291	-120.391	-168.431	-40.5496	-82.4829	-164.78	-85.2108	-98.3802	-146.552	-61.6598	-105.708	-164.411	-48.8879	-72.268	-152.212	-88.5345	-83.4858	-139.289	-61.7079	-88.2028	-150.717	-52.1665	-58.3983	-194.52	-94.3794	-42.3081	-206.392	-89.1379	-13.2488	-224.156	-69.4341	-38.7212	
37	0.308333	-229.672	-23.5464	-34.2261	-236.817	-12.7129	-61.4994	-245.318	0.473376	-86.2674	-254.177	14.0803	-107.594	-218.85	-62.5489	-114.857	-194.512	-51.0169	-127.818	-191.572	-31.7368	-97.917	-205.033	-79.3833	-111.402	-176.664	-61.6827	-123.165	-178.363	-47.73	-86.0448	-186.772	-91.01	-103.905	-165.05	-67.2494	-111.226	-172.119	-58.1235	-74.674	-175.413	-100.603	-85.6989	-153.158	-77.1688	-96.3687	-161.425	-60.993	-70.8256	-214.809	-89.9102	-43.6896	-216.601	-89.5201	-12	-236.691	-60.5038	-39.1014	
38	0.316667	-223.935	-19.2227	-29.7299	-229.858	0.426801	-53.6892	-239.353	16.3241	-80.5012	-240.49	27.3083	-99.7923	-236.358	-49.8543	-109.084	-210.213	-43.6888	-129.717	-196.239	-33.5565	-98.1473	-227.627	-67.288	-113.649	-194.019	-61.2322	-125.857	-189.706	-49.7848	-85.8247	-211.745	-85.0068	-109.797	-184.043	-73.5299	-117.126	-182.799	-62.0889	-82.288	-200.264	-99.5802	-94.4203	-173.19	-85.6608	-103.112	-173.852	-72.0109	-69.4623	-228.925	-87.4055	-44.9866	-230.339	-80.5837	-13.8639	-243.454	-50.1144	-34.476	
39	0.325	-214.684	-14.83	-25.5101	-215.18	2.95533	-47.4149	-223.451	27.4859	-75.0068	-225.884	44.5514	-94.9539	-242.84	-33.3604	-109.127	-221.55	-34.5621	-128.267	-199.387	-28.1712	-96.9151	-240.338	-56.0613	-114.102	-207.415	-55.0343	-125.545	-195.384	-50.6333	-90.3734	-231.867	-72.3366	-109.108	-201.922	-70.7934	-118.516	-194.199	-64.6756	-81.96	-223.002	-92.0031	-98.9465	-193.346	-83.9101	-106.15	-189.944	-76.6924	-73.3096	-245.024	-72.6657	-43.9624	-238.091	-74.6389	-12.5424	-241.804	-36.5533	-27.9765	
40	0.333333	-201.376	-7.39313	-21.603	-200.591	8.71613	-43.4708	-201.209	34.6643	-65.2603	-197.635	53.0299	-81.9077	-243.344	-13.2278	-101.753	-222.411	-19.0042	-122.428	-200.059	-26.5235	-95.9993	-248.084	-33.2365	-107.728	-220.307	-41.9214	-125.81	-200.378	-41.1348	-90.8062	-245.956	-56.119	-106.371	-218.173	-60.1128	-120.21	-205.156	-57.554	-83.1961	-242.978	-73.4897	-94.4111	-213.274	-78.1116	-108.618	-200.977	-72.5807	-77.6986	-254.019	-59.2511	-43.3039	-244.162	-61.8933	-8.8724	-238.47	-26.6084	-22.5471	
41	0.341667	-189.26	-11.3328	-16.8092	-182.664	2.12437	-37.0443	-176.389	33.8685	-59.494	-171.793	48.9851	-76.0747	-233.05	4.85186	-91.407	-221.483	-5.39899	-118.476	-200.004	-24.2705	-95.6074	-247.34	-13.7287	-102.043	-224.191	-29.0891	-123.106	-206.256	-43.3086	-88.9168	-253.466	-37.3484	-100.522	-228.338	-46.322	-117.571	-211.674	-52.0452	-85.0407	-256.186	-58.1643	-92.8763	-227.656	-67.1684	-107.315	-213.957	-72.4842	-75.21	-254.287	-41.0201	-36.4226	-243.713	-48.265	-5.02245	-227.2	-16.8892	-16.1213	
42	0.35	-181.566	-18.3432	-18.5193	-168.05	-1.00026	-34.3041	-160.38	22.1403	-59.1241	-149.922	35.6523	-74.4052	-220.093	13.1771	-87.4105	-212.503	-3.8792	-115.544	-194.186	-24.7215	-91.0334	-239.702	-3.05978	-98.9492	-224.947	-25.5519	-120.01	-204.2	-40.1526	-86.3745	-252.023	-24.806	-95.5474	-234.149	-44.6639	-113.641	-216.418	-51.7619	-82.9568	-260.425	-44.1016	-87.3434	-236.345	-58.9675	-104.569	-221.169	-66.9848	-76.186	-249.846	-29.2201	-29.4166	-241.716	-40.775	-0.0913911	-218.257	-13.9321	-13.6101	
43	0.358333	-173.342	-22.1007	-16.4677	-162.191	-9.57776	-37.1221	-145.44	8.96299	-57.3761	-132.692	23.9594	-79.0033	-214.23	8.55472	-90.0582	-206.433	-5.58318	-117.059	-193.278	-31.9529	-94.6448	-233.395	-3.0911	-94.2632	-219.003	-28.5505	-118.215	-206.613	-45.9997	-86.0116	-246.878	-20.4496	-96.1005	-235.24	-42.2147	-111.407	-219.93	-55.5513	-78.1194	-257.167	-35.2723	-84.5363	-240.785	-57.6567	-100.136	-225.027	-67.197	-74.3856	-243.94	-18.4998	-29.3296	-240.502	-32.1702	3.67474	-208.16	-10.1925	-12.5466	
44	0.366667	-171.369	-26.2054	-15.5088	-152.368	-14.9306	-38.5079	-135.004	2.7853	-64.8636	-126.181	7.85447	-84.4839	-203.681	0.566697	-92.9657	-202.947	-19.848	-117.586	-190.944	-42.3577	-88.1707	-224.435	-8.61655	-95.3607	-220.184	-37.9271	-115.732	-203.564	-54.2796	-80.774	-244.231	-27.2555	-95.6535	-233.824	-51.7789	-106.515	-218.887	-60.2556	-71.2708	-255.993	-37.9157	-77.4125	-239.711	-66.0136	-91.8282	-222.832	-67.0731	-62.8328	-238.595	-15.6494	-27.5696	-230.513	-21.9342	3.57934	-201.407	-5.0162	-17.3018	
